#N canvas 467 478 450 300 12;
#X obj 108 105 prepend open;
#X obj 109 79 prepend \$1;
#X obj 60 36 inlet;
#X obj 59 132 readsf~;
#X obj 59 76 t b b;
#X msg 59 101 1;
#X obj 58 194 throw~;
#X obj 244 30 inlet;
#X obj 59 160 *~;
#X obj 170 167 line~;
#X obj 223 115 clip 0 1;
#X obj 222 92 scale 5 20 0 1;
#X obj 157 30 inlet;
#X msg 170 137 \$1 200;
#X obj 270 67 + 30;
#X connect 0 0 3 0;
#X connect 1 0 0 0;
#X connect 2 0 4 0;
#X connect 3 0 8 0;
#X connect 4 0 5 0;
#X connect 4 1 1 0;
#X connect 5 0 3 0;
#X connect 7 0 11 1;
#X connect 7 0 14 0;
#X connect 8 0 6 0;
#X connect 9 0 8 1;
#X connect 10 0 13 0;
#X connect 11 0 10 0;
#X connect 12 0 11 0;
#X connect 13 0 9 0;
#X connect 14 0 11 2;
