#N canvas 237 23 1037 684 12;
#X msg 105 50 close;
#X msg 105 73 devices;
#X obj 31 28 hradio 15 1 0 12 empty empty port 0 -8 0 10 #fcfcfc #000000 #000000 0;
#X msg 31 47 open \$1;
#X floatatom 29 149 5 0 0 0 - - - 0;
#X obj 31 123 unpack 0 0 0 0 0 0 0 0, f 111;
#X obj 27 212 > 10;
#X obj 27 260 sel 0 1;
#X obj 26 286 bng 19 250 50 0 empty empty empty 0 -10 0 12 #fcfcfc #000000 #000000;
#X obj 27 236 change;
#X obj 51 286 bng 19 250 50 0 empty empty empty 0 -10 0 12 #fcfcfc #000000 #000000;
#X obj 19 442 tgl 19 0 empty empty empty 0 -10 0 12 #fcfcfc #000000 #000000 0 1;
#X obj 353 581 catch~;
#X obj 352 607 dac~;
#X obj 30 170 hsl 100 16 0 50 0 0 empty empty empty -2 -10 0 12 #fcfcfc #000000 #000000 0 1;
#X obj 30 191 hsl 100 16 0 50 0 0 empty empty empty -2 -10 0 12 #fcfcfc #000000 #000000 0 1;
#X floatatom 139 148 5 0 0 0 - - - 0;
#X obj 139 212 > 10;
#X obj 139 260 sel 0 1;
#X obj 138 286 bng 19 250 50 0 empty empty empty 0 -10 0 12 #fcfcfc #000000 #000000;
#X obj 139 236 change;
#X obj 163 286 bng 19 250 50 0 empty empty empty 0 -10 0 12 #fcfcfc #000000 #000000;
#X obj 141 171 hsl 100 16 0 50 0 0 empty empty empty -2 -10 0 12 #fcfcfc #000000 #000000 0 1;
#X obj 141 190 hsl 100 16 0 50 0 0 empty empty empty -2 -10 0 12 #fcfcfc #000000 #000000 0 1;
#X floatatom 253 148 5 0 0 0 - - - 0;
#X obj 253 212 > 10;
#X obj 253 260 sel 0 1;
#X obj 252 286 bng 19 250 50 0 empty empty empty 0 -10 0 12 #fcfcfc #000000 #000000;
#X obj 253 236 change;
#X obj 277 286 bng 19 250 50 0 empty empty empty 0 -10 0 12 #fcfcfc #000000 #000000;
#X obj 256 170 hsl 100 16 0 50 0 0 empty empty empty -2 -10 0 12 #fcfcfc #000000 #000000 0 1;
#X obj 256 190 hsl 100 16 0 50 0 0 empty empty empty -2 -10 0 12 #fcfcfc #000000 #000000 0 1;
#X floatatom 366 148 5 0 0 0 - - - 0;
#X obj 366 212 > 10;
#X obj 366 260 sel 0 1;
#X obj 365 286 bng 19 250 50 0 empty empty empty 0 -10 0 12 #fcfcfc #000000 #000000;
#X obj 366 236 change;
#X obj 390 286 bng 19 250 50 0 empty empty empty 0 -10 0 12 #fcfcfc #000000 #000000;
#X obj 370 171 hsl 100 16 0 50 0 0 empty empty empty -2 -10 0 12 #fcfcfc #000000 #000000 0 1;
#X obj 369 190 hsl 100 16 0 50 0 0 empty empty empty -2 -10 0 12 #fcfcfc #000000 #000000 0 1;
#X floatatom 479 149 5 0 0 0 - - - 0;
#X obj 479 212 > 10;
#X obj 479 261 sel 0 1;
#X obj 478 287 bng 19 250 50 0 empty empty empty 0 -10 0 12 #fcfcfc #000000 #000000;
#X obj 479 237 change;
#X obj 503 287 bng 19 250 50 0 empty empty empty 0 -10 0 12 #fcfcfc #000000 #000000;
#X obj 483 171 hsl 100 16 0 50 0 0 empty empty empty -2 -10 0 12 #fcfcfc #000000 #000000 0 1;
#X obj 483 190 hsl 100 16 0 50 0 0 empty empty empty -2 -10 0 12 #fcfcfc #000000 #000000 0 1;
#X floatatom 591 149 5 0 0 0 - - - 0;
#X obj 591 213 > 10;
#X obj 591 261 sel 0 1;
#X obj 590 287 bng 19 250 50 0 empty empty empty 0 -10 0 12 #fcfcfc #000000 #000000;
#X obj 591 237 change;
#X obj 615 287 bng 19 250 50 0 empty empty empty 0 -10 0 12 #fcfcfc #000000 #000000;
#X obj 594 171 hsl 100 16 0 50 0 0 empty empty empty -2 -10 0 12 #fcfcfc #000000 #000000 0 1;
#X obj 594 192 hsl 100 16 0 50 0 0 empty empty empty -2 -10 0 12 #fcfcfc #000000 #000000 0 1;
#X floatatom 703 149 5 0 0 0 - - - 0;
#X obj 703 213 > 10;
#X obj 703 261 sel 0 1;
#X obj 702 287 bng 19 250 50 0 empty empty empty 0 -10 0 12 #fcfcfc #000000 #000000;
#X obj 703 237 change;
#X obj 727 287 bng 19 250 50 0 empty empty empty 0 -10 0 12 #fcfcfc #000000 #000000;
#X obj 706 171 hsl 100 16 0 50 0 0 empty empty empty -2 -10 0 12 #fcfcfc #000000 #000000 0 1;
#X obj 706 192 hsl 100 16 0 50 0 0 empty empty empty -2 -10 0 12 #fcfcfc #000000 #000000 0 1;
#X floatatom 817 149 5 0 0 0 - - - 0;
#X obj 817 213 > 10;
#X obj 817 261 sel 0 1;
#X obj 816 287 bng 19 250 50 0 empty empty empty 0 -10 0 12 #fcfcfc #000000 #000000;
#X obj 817 237 change;
#X obj 841 287 bng 19 250 50 0 empty empty empty 0 -10 0 12 #fcfcfc #000000 #000000;
#X obj 820 171 hsl 100 16 0 50 0 0 empty empty empty -2 -10 0 12 #fcfcfc #000000 #000000 0 1;
#X obj 820 192 hsl 100 16 0 50 0 0 empty empty empty -2 -10 0 12 #fcfcfc #000000 #000000 0 1;
#X obj 40 551 tgl 19 0 empty empty empty 0 -10 0 12 #fcfcfc #000000 #000000 0 1;
#X text 64 551 recording;
#X text 43 442 recording;
#X obj 300 364 hradio 19 1 0 8 empty empty empty 0 -10 0 12 #fcfcfc #000000 #000000 0;
#X obj 300 391 sel 0 1 2 3 4 5 6 7;
#X text 464 366 choose which slot to record;
#X obj 2 313 player sample1.wav;
#X obj 129 335 player sample2.wav;
#X obj 220 312 player sample3.wav;
#X obj 352 331 player sample4.wav;
#X obj 445 311 player sample5.wav;
#X obj 565 334 player sample6.wav;
#X obj 673 311 player sample7.wav;
#X obj 797 333 player sample8.wav;
#X obj 213 517 tgl 19 0 empty empty empty 0 -10 0 12 #fcfcfc #000000 #000000 0 1;
#X text 237 517 recording;
#X obj 361 493 tgl 19 0 empty empty empty 0 -10 0 12 #fcfcfc #000000 #000000 0 1;
#X text 385 493 recording;
#X obj 476 443 tgl 19 0 empty empty empty 0 -10 0 12 #fcfcfc #000000 #000000 0 1;
#X text 500 443 recording;
#X obj 579 532 tgl 19 0 empty empty empty 0 -10 0 12 #fcfcfc #000000 #000000 0 1;
#X text 603 532 recording;
#X obj 666 444 tgl 19 0 empty empty empty 0 -10 0 12 #fcfcfc #000000 #000000 0 1;
#X text 690 444 recording;
#X obj 777 491 tgl 19 0 empty empty empty 0 -10 0 12 #fcfcfc #000000 #000000 0 1;
#X text 801 491 recording;
#X obj 32 96 serial_communication;
#X obj 606 560 bng 19 250 50 0 empty empty empty 0 -10 0 12 #fcfcfc #000000 #000000;
#X obj 605 585 sample_buffer sample1.wav;
#X obj 642 571 hsl 140 10 -2 2 0 0 empty empty empty -2 -10 0 12 #fcfcfc #000000 #000000 0 1;
#X obj 598 610 dac~;
#X msg 727 365 start;
#X msg 740 388 stop;
#X msg 848 410 start;
#X msg 861 433 stop;
#X msg 544 370 start;
#X msg 557 393 stop;
#X msg 607 455 start;
#X msg 620 478 stop;
#X msg 427 421 start;
#X msg 440 444 stop;
#X msg 271 438 start;
#X msg 284 461 stop;
#X msg 107 475 start;
#X msg 120 498 stop;
#X msg 76 358 start;
#X msg 89 381 stop;
#X obj 20 412 recorder_m sample1.wav;
#X obj 40 529 recorder_m sample2.wav;
#X obj 213 495 recorder_m sample3.wav;
#X obj 361 471 recorder_m sample4.wav;
#X obj 476 421 recorder_m sample5.wav;
#X obj 579 510 recorder_m sample6.wav;
#X obj 666 422 recorder_m sample7.wav;
#X obj 777 469 recorder_m sample8.wav;
#X connect 0 0 98 0;
#X connect 1 0 98 0;
#X connect 2 0 3 0;
#X connect 3 0 98 0;
#X connect 4 0 14 0;
#X connect 5 0 4 0;
#X connect 5 1 16 0;
#X connect 5 2 24 0;
#X connect 5 3 32 0;
#X connect 5 4 40 0;
#X connect 5 5 48 0;
#X connect 5 6 56 0;
#X connect 5 7 64 0;
#X connect 6 0 9 0;
#X connect 7 0 8 0;
#X connect 7 1 10 0;
#X connect 9 0 7 0;
#X connect 10 0 78 0;
#X connect 12 0 13 0;
#X connect 12 0 13 1;
#X connect 14 0 6 0;
#X connect 14 0 78 1;
#X connect 15 0 6 1;
#X connect 15 0 78 2;
#X connect 16 0 22 0;
#X connect 17 0 20 0;
#X connect 18 0 19 0;
#X connect 18 1 21 0;
#X connect 20 0 18 0;
#X connect 21 0 79 0;
#X connect 22 0 17 0;
#X connect 22 0 79 1;
#X connect 23 0 17 1;
#X connect 23 0 79 2;
#X connect 24 0 30 0;
#X connect 25 0 28 0;
#X connect 26 0 27 0;
#X connect 26 1 29 0;
#X connect 28 0 26 0;
#X connect 29 0 80 0;
#X connect 30 0 25 0;
#X connect 30 0 80 1;
#X connect 31 0 25 1;
#X connect 31 0 80 2;
#X connect 32 0 38 0;
#X connect 33 0 36 0;
#X connect 34 0 35 0;
#X connect 34 1 37 0;
#X connect 36 0 34 0;
#X connect 37 0 81 0;
#X connect 38 0 33 0;
#X connect 38 0 81 1;
#X connect 39 0 33 1;
#X connect 39 0 81 2;
#X connect 40 0 46 0;
#X connect 41 0 44 0;
#X connect 42 0 43 0;
#X connect 42 1 45 0;
#X connect 44 0 42 0;
#X connect 45 0 82 0;
#X connect 46 0 41 0;
#X connect 46 0 82 1;
#X connect 47 0 41 1;
#X connect 47 0 82 2;
#X connect 48 0 54 0;
#X connect 49 0 52 0;
#X connect 50 0 51 0;
#X connect 50 1 53 0;
#X connect 52 0 50 0;
#X connect 53 0 83 0;
#X connect 54 0 49 0;
#X connect 54 0 83 1;
#X connect 55 0 49 1;
#X connect 55 0 83 2;
#X connect 56 0 62 0;
#X connect 57 0 60 0;
#X connect 58 0 59 0;
#X connect 58 1 61 0;
#X connect 60 0 58 0;
#X connect 61 0 84 0;
#X connect 62 0 57 0;
#X connect 62 0 84 1;
#X connect 63 0 57 1;
#X connect 63 0 84 2;
#X connect 64 0 70 0;
#X connect 65 0 68 0;
#X connect 66 0 67 0;
#X connect 66 1 69 0;
#X connect 66 1 85 0;
#X connect 68 0 66 0;
#X connect 70 0 65 0;
#X connect 70 0 85 1;
#X connect 71 0 65 1;
#X connect 71 0 85 2;
#X connect 75 0 76 0;
#X connect 76 0 119 0;
#X connect 76 1 120 0;
#X connect 76 2 121 0;
#X connect 76 3 122 0;
#X connect 76 4 123 0;
#X connect 76 5 124 0;
#X connect 76 6 125 0;
#X connect 76 7 126 0;
#X connect 98 0 5 0;
#X connect 99 0 100 0;
#X connect 100 0 102 0;
#X connect 100 0 102 1;
#X connect 101 0 100 1;
#X connect 103 0 125 1;
#X connect 104 0 125 1;
#X connect 105 0 126 1;
#X connect 106 0 126 1;
#X connect 107 0 123 1;
#X connect 108 0 123 1;
#X connect 109 0 124 1;
#X connect 110 0 124 1;
#X connect 111 0 122 1;
#X connect 112 0 122 1;
#X connect 113 0 121 1;
#X connect 114 0 121 1;
#X connect 115 0 120 1;
#X connect 116 0 120 1;
#X connect 117 0 119 1;
#X connect 118 0 119 1;
#X connect 119 0 11 0;
#X connect 120 0 72 0;
#X connect 121 0 86 0;
#X connect 122 0 88 0;
#X connect 123 0 90 0;
#X connect 124 0 92 0;
#X connect 125 0 94 0;
#X connect 126 0 96 0;
